<?xml version="1.0" standalone="no"?>
<!DOCTYPE svg PUBLIC "-//W3C//DTD SVG 20010904//EN"
 "http://www.w3.org/TR/2001/REC-SVG-20010904/DTD/svg10.dtd">
<svg version="1.0" xmlns="http://www.w3.org/2000/svg"
 width="512.000000pt" height="512.000000pt" viewBox="0 0 512.000000 512.000000"
 preserveAspectRatio="xMidYMid meet">

<g transform="translate(0.000000,512.000000) scale(0.100000,-0.100000)"
fill="#000000" stroke="none">
<path d="M2430 4898 c-478 -23 -947 -202 -1335 -508 -113 -89 -307 -288 -394
-403 -239 -319 -382 -648 -453 -1046 -20 -109 -23 -160 -23 -381 0 -221 3
-272 23 -381 91 -506 306 -923 657 -1274 350 -350 768 -567 1265 -657 147 -26
481 -36 643 -18 822 88 1545 611 1884 1362 143 317 205 608 205 968 0 218 -12
328 -58 534 -149 668 -622 1262 -1249 1570 -366 180 -741 255 -1165 234z m445
-818 c306 -65 556 -201 780 -425 225 -225 359 -471 426 -785 30 -139 33 -424
6 -570 -115 -615 -580 -1093 -1198 -1232 -91 -20 -131 -23 -314 -23 -163 0
-229 4 -295 18 -211 44 -420 133 -591 252 -121 84 -310 278 -392 400 -111 169
-190 354 -233 555 -27 121 -27 477 -1 600 140 657 655 1138 1317 1230 108 15
381 4 495 -20z"/>
<path d="M2360 3806 c-337 -60 -639 -256 -827 -539 -280 -419 -280 -961 -3
-1381 35 -53 68 -95 73 -93 5 1 397 398 872 882 l863 880 -23 21 c-44 40 -173
115 -260 150 -162 67 -260 86 -450 90 -112 2 -196 -1 -245 -10z"/>
<path d="M2707 2444 c-472 -482 -856 -881 -855 -886 7 -20 163 -107 263 -147
265 -105 577 -115 850 -26 307 100 564 318 714 605 99 189 141 364 141 585 0
204 -39 374 -127 549 -46 91 -111 196 -122 196 -3 0 -392 -394 -864 -876z"/>
</g>
</svg>
